<svg xmlns="http://www.w3.org/2000/svg" viewBox="0 0 297.84 329.42"><defs><style>.cls-1{fill:#ffb93f;}.cls-2{fill:#16588c;}</style></defs><title>Fichier 2</title><g id="Calque_2" data-name="Calque 2"><g id="Calque_1-2" data-name="Calque 1"><path class="cls-1" d="M108.66,81a125.41,125.41,0,0,1,42.58,22.47,124.84,124.84,0,0,1,44.7,75.17,117.81,117.81,0,0,0,21.8-12.54,147.92,147.92,0,0,0-43.55-73.88A148.09,148.09,0,0,0,81.68,52.84c-2.79-.17-5.69-.26-8.61-.26A148,148,0,0,0,0,71.71,148.72,148.72,0,0,0,69.46,196.14a156.64,156.64,0,0,1,3-25.82,126,126,0,0,1-48.11-82L24,85.46l2.71-1.07A124.79,124.79,0,0,1,72.6,75.71c1.59,0,3.19,0,4.77.08A126.09,126.09,0,0,1,108.66,81Z"/><path class="cls-1" d="M80.21,169.56a149,149,0,0,0-3.44,31.95v1a149.2,149.2,0,0,0,72.61,126.87,149.56,149.56,0,0,0,25.48-19.21,147.44,147.44,0,0,0,47-101.74,156.54,156.54,0,0,1-25.19,10.59,124.56,124.56,0,0,1-45.41,79.59l-2.32,1.88-2.33-1.88A125.18,125.18,0,0,1,99.89,201a127.62,127.62,0,0,1,1.2-17.38A124.71,124.71,0,0,1,143,106.43a116.74,116.74,0,0,0-20.54-12.28A148,148,0,0,0,80.21,169.56Z"/><path class="cls-1" d="M294.28,102.67a149.78,149.78,0,0,0,3.56-31.48,148.45,148.45,0,0,0-72.15-18.61h-.86A149.41,149.41,0,0,0,193.71,56a147.32,147.32,0,0,0-36.94,13.43,156.76,156.76,0,0,1,20.67,15.68,124.49,124.49,0,0,1,38.09-9.06,121.79,121.79,0,0,1,14.06-.29A124.68,124.68,0,0,1,270.25,84l2.74,1-.4,2.91A125.23,125.23,0,0,1,148.45,196c-3,0-6-.11-9-.32a124.59,124.59,0,0,1-26.26-4.73c-1.75-.5-3.53-1.06-5.31-1.67-.39,3.92-.59,7.87-.59,11.8a119.45,119.45,0,0,0,.64,12.33,149.82,149.82,0,0,0,84.29-.69,147.44,147.44,0,0,0,31.61-13.79A149.3,149.3,0,0,0,294.28,102.67Z"/><path class="cls-2" d="M157.67,45.16A126.67,126.67,0,0,1,168.51,55.8a154.88,154.88,0,0,1,17-5.59c2.21-.59,4.49-1.14,6.82-1.65a150.82,150.82,0,0,0-14.16-15.68A118.34,118.34,0,0,0,157.67,45.16Z"/><path class="cls-2" d="M107.1,18.48a124,124,0,0,1,16.16,5.4A156.76,156.76,0,0,1,143.93,8.2a149.4,149.4,0,0,0-18.19-8A117.26,117.26,0,0,0,107.1,18.48Z"/><path class="cls-2" d="M177.44,0a148.78,148.78,0,0,0-50.93,30.92h0a150.52,150.52,0,0,0-16.79,18.35,154.86,154.86,0,0,1,24.11,7.91,126.65,126.65,0,0,1,15.63-15,125,125,0,0,1,28-17.07A123.79,123.79,0,0,1,192,19.71c1.41-.43,2.86-.83,4.33-1.21A117.89,117.89,0,0,0,177.44,0Z"/><path class="cls-2" d="M148.45,150c-3,0-6-.11-9-.32a126,126,0,0,1-18.9-2.82,117.38,117.38,0,0,0-8.6,21.62,149.48,149.48,0,0,0,73.91,0,116.31,116.31,0,0,0-8.67-21.79A125.94,125.94,0,0,1,148.45,150Z"/><path class="cls-2" d="M148.45,243c-3,0-6-.11-9-.32a124.79,124.79,0,0,1-26.16-4.7,116.23,116.23,0,0,0,12.46,26.32,148.54,148.54,0,0,0,46.3,0,116.69,116.69,0,0,0,12.58-26.62A125,125,0,0,1,148.45,243Z"/></g></g></svg>